<svg version="1.0" xmlns="http://www.w3.org/2000/svg"
 width="768.000000pt" height="571.000000pt" viewBox="0 0 768.000000 571.000000"
 preserveAspectRatio="xMidYMid meet">

<g transform="translate(0.000000,571.000000) scale(0.100000,-0.100000)"
fill="#000000" stroke="none">
<path d="M5920 5064 c0 -6 120 -542 389 -1736 l200 -887 72 -90 c50 -63 79
-91 93 -91 12 1 100 11 196 23 l175 22 6 50 c4 28 40 536 80 1131 l73 1080
-74 92 c-40 50 -81 94 -89 96 -9 3 -259 73 -556 156 -297 83 -546 153 -552
155 -7 2 -13 2 -13 -1z m312 -168 c140 -37 600 -175 583 -176 -12 0 -361 64
-430 80 -48 10 -258 68 -281 77 -6 2 2 -34 17 -79 59 -177 142 -534 203 -873
23 -125 77 -535 75 -560 -1 -10 -21 83 -107 505 -43 205 -60 281 -166 710 -36
146 -66 277 -66 291 0 15 -7 29 -15 33 -27 10 -16 26 20 26 19 0 94 -15 167
-34z"/>
<path d="M4575 4730 c-121 -20 -223 -52 -340 -110 -189 -93 -331 -213 -468
-395 -74 -100 -181 -299 -222 -418 -15 -43 -29 -76 -31 -75 -1 2 -19 134 -38
293 l-36 289 -112 117 -113 118 -70 -6 c-111 -8 -857 -101 -863 -108 -6 -6 17
-204 113 -990 25 -203 44 -377 43 -386 -2 -9 -189 220 -428 520 -320 405 -452
562 -535 643 l-110 107 -280 -34 c-154 -18 -361 -44 -460 -56 -99 -12 -181
-23 -183 -24 -2 -2 214 -1785 368 -3043 22 -177 40 -327 40 -332 0 -6 7 -10
15 -10 8 0 62 -46 120 -102 l106 -101 432 52 c237 29 439 54 449 57 39 12 40
22 3 325 -20 162 -58 476 -85 698 -28 223 -48 406 -46 408 2 2 195 -246 430
-551 382 -496 439 -565 542 -660 111 -103 116 -106 152 -101 20 3 218 28 440
55 224 27 410 54 418 61 8 6 14 24 14 38 0 15 -27 248 -60 517 -33 269 -60
496 -60 504 0 8 21 -17 46 -55 80 -120 180 -231 341 -378 292 -268 434 -353
703 -424 125 -33 349 -38 480 -10 489 105 883 539 1020 1122 70 299 68 662 -5
970 -71 301 -219 599 -404 812 -83 97 -338 333 -450 418 -146 110 -324 192
-503 231 -89 19 -291 26 -373 14z m300 -88 c34 -6 26 -9 -65 -20 -120 -14
-318 -52 -401 -76 -86 -25 -260 -144 -361 -246 -120 -121 -295 -390 -369 -568
-117 -281 -132 -780 -34 -1162 50 -198 168 -481 273 -653 63 -103 29 -69 -50
52 -176 266 -285 565 -329 901 -18 139 -16 442 5 574 37 235 85 366 212 578
165 278 278 395 469 491 123 61 300 115 425 130 60 7 183 6 225 -1z m-1895
-226 c0 -12 -275 -68 -392 -79 -76 -7 -140 -16 -143 -19 -3 -3 6 -86 20 -184
75 -530 168 -1446 151 -1490 -7 -18 -8 -18 -17 -2 -5 9 -23 122 -39 250 -17
128 -32 244 -35 258 -14 70 -135 1105 -135 1152 l0 54 188 22 c157 19 306 34
385 41 9 0 17 -1 17 -3z m-1955 -232 c-74 -21 -330 -64 -382 -64 -43 0 -44 -1
-39 -27 23 -111 94 -645 141 -1063 38 -338 110 -1168 102 -1176 -2 -2 -18 85
-36 193 -103 646 -227 1624 -247 1958 -4 61 -11 115 -15 121 -22 28 8 33 351
63 52 5 113 8 135 9 l40 0 -50 -14z m4118 -666 c33 -10 41 -19 67 -73 47 -98
64 -184 63 -320 -1 -184 -47 -329 -148 -470 -128 -180 -327 -262 -495 -204
-34 12 -56 48 -89 145 -95 284 5 661 221 833 124 99 247 128 381 89z m234
-241 c25 -75 27 -94 27 -227 -1 -136 -3 -151 -33 -240 -44 -130 -99 -220 -195
-315 -86 -86 -167 -134 -261 -155 -62 -14 -180 -14 -203 0 -13 9 -11 10 14 5
17 -3 63 1 103 9 196 41 400 228 487 447 67 170 79 388 29 530 -8 22 -10 37
-5 34 5 -3 22 -43 37 -88z m-3810 -514 c67 -81 363 -489 493 -678 68 -99 167
-243 220 -320 120 -175 147 -221 64 -110 -17 22 -120 155 -230 295 -311 396
-614 811 -614 841 0 32 26 21 67 -28z"/>
<path d="M6710 2241 c-90 -29 -164 -91 -202 -170 -30 -61 -36 -171 -14 -239
21 -61 205 -296 263 -334 164 -108 379 -48 461 131 21 45 26 71 26 131 -1 96
-20 137 -114 255 -152 189 -204 226 -325 231 -38 2 -81 0 -95 -5z m72 -99
c-138 -102 -172 -146 -172 -224 1 -83 50 -154 125 -182 37 -13 38 -15 12 -15
-67 -2 -155 63 -183 134 -46 121 37 256 179 291 67 16 66 16 39 -4z"/>
</g>
</svg>
