<?xml version="1.0" standalone="no"?>
<!DOCTYPE svg PUBLIC "-//W3C//DTD SVG 20010904//EN"
 "http://www.w3.org/TR/2001/REC-SVG-20010904/DTD/svg10.dtd">
<svg version="1.0" xmlns="http://www.w3.org/2000/svg"
 width="1300.000000pt" height="1300.000000pt" viewBox="0 0 1300.000000 1300.000000"
 preserveAspectRatio="xMidYMid meet">

<g transform="translate(0.000000,1300.000000) scale(0.100000,-0.100000)"
fill="#000000" stroke="none">
<path d="M11059 11053 c-13 -16 -12 -17 4 -4 16 13 21 21 13 21 -2 0 -10 -8
-17 -17z"/>
<path d="M8435 11050 c-38 -4 -124 -13 -190 -19 -135 -13 -249 -37 -351 -76
-38 -14 -100 -33 -139 -41 -79 -17 -181 -56 -375 -143 -243 -109 -305 -149
-435 -277 -50 -49 -115 -112 -145 -140 -180 -165 -261 -301 -319 -530 -17 -66
-48 -158 -70 -204 -21 -47 -44 -105 -51 -129 -11 -42 -12 -43 -27 -22 -8 12
-27 70 -43 129 -30 115 -58 192 -69 192 -4 0 -13 -6 -21 -12 -12 -11 -12 -10
-1 4 11 15 10 22 -6 45 -11 15 -25 57 -32 93 -29 148 -105 283 -199 353 -30
23 -90 74 -132 112 -213 194 -304 256 -455 314 -44 17 -106 45 -138 62 -55 29
-220 69 -285 69 -15 0 -52 15 -83 34 -110 66 -161 76 -405 80 -121 1 -257 8
-304 15 -95 14 -198 9 -305 -15 -38 -9 -115 -19 -171 -24 -56 -4 -107 -11
-115 -16 -8 -5 -18 -9 -24 -10 -5 -1 -50 -20 -100 -42 -49 -22 -129 -50 -178
-61 -92 -22 -154 -48 -177 -76 -8 -9 -46 -33 -84 -52 -110 -55 -241 -146 -354
-247 -31 -28 -32 -30 -15 -50 13 -15 9 -14 -11 4 -16 14 -26 20 -22 13 3 -7
-7 -21 -26 -34 -45 -33 -81 -73 -135 -154 -25 -38 -66 -92 -91 -120 -90 -101
-130 -173 -163 -296 -41 -150 -56 -215 -62 -268 l-6 -44 342 339 342 339 -337
-340 c-186 -187 -338 -346 -338 -354 0 -11 -3 -11 -17 0 -16 12 -17 12 -7 -1
7 -8 12 -56 13 -107 2 -81 -2 -102 -30 -180 -29 -80 -33 -100 -34 -208 0 -66
2 -127 6 -135 79 -172 91 -206 110 -304 11 -60 29 -133 40 -162 11 -30 17 -59
13 -65 -4 -7 -3 -9 3 -6 6 4 23 -17 38 -46 16 -29 43 -70 61 -92 47 -59 97
-153 90 -171 -3 -8 -2 -13 3 -10 10 7 46 -74 60 -135 9 -41 60 -189 80 -234
34 -76 51 -127 45 -137 -5 -7 -3 -8 6 -3 10 6 12 4 7 -8 -3 -9 -2 -16 2 -14
18 4 215 -286 203 -298 -4 -4 -1 -5 7 -3 7 1 16 -3 19 -11 3 -9 0 -11 -8 -6
-9 6 -11 4 -6 -4 5 -7 10 -10 14 -7 8 8 52 -55 46 -66 -3 -5 0 -7 7 -6 15 4
29 -23 75 -147 43 -117 102 -232 150 -294 18 -24 31 -49 27 -55 -3 -6 -3 -8 2
-4 11 10 69 -85 116 -191 31 -70 54 -102 135 -188 54 -58 115 -134 135 -169
21 -36 47 -76 58 -91 12 -14 18 -30 14 -37 -3 -6 -2 -8 2 -3 10 9 131 -107
151 -146 8 -15 12 -33 8 -40 -4 -7 -4 -9 1 -5 14 13 130 -155 170 -247 42 -95
74 -137 244 -315 59 -61 91 -103 91 -117 0 -71 110 -251 220 -360 38 -38 70
-75 70 -82 0 -26 68 -158 96 -186 17 -16 35 -37 40 -45 5 -8 31 -31 57 -50 40
-29 56 -52 97 -135 61 -125 112 -189 237 -300 98 -87 132 -134 154 -210 16
-59 60 -157 80 -180 10 -11 31 -43 46 -71 42 -76 104 -143 245 -265 89 -77
141 -130 175 -180 26 -39 74 -99 107 -133 32 -33 74 -86 94 -116 19 -30 54
-77 78 -104 l42 -49 -35 -52 c-36 -56 -82 -182 -78 -219 1 -11 3 -29 4 -38 1
-21 28 -48 46 -48 8 0 49 49 92 109 l78 108 32 -41 c17 -22 61 -63 97 -90 47
-35 76 -67 103 -113 87 -149 238 -240 259 -157 10 39 -164 336 -286 489 -69
86 -74 98 -54 138 l16 32 -38 -35 c-23 -20 -14 -8 20 30 32 36 73 78 90 94 17
15 56 51 86 80 30 28 48 42 40 31 -11 -15 -8 -14 12 4 15 13 25 27 23 32 -3 4
0 11 6 15 8 4 9 3 5 -4 -20 -33 18 -4 85 66 77 79 113 121 93 109 -24 -14 59
134 87 156 92 70 154 123 196 168 26 28 75 72 107 96 74 56 158 146 271 288
103 130 111 137 195 197 68 48 298 275 394 389 31 37 74 79 95 94 84 57 333
298 367 355 9 14 56 52 106 85 50 32 135 101 187 152 193 188 224 219 264 265
22 26 45 44 50 41 6 -3 7 -1 3 5 -7 12 27 65 71 111 13 13 23 29 23 35 0 15
84 98 92 91 3 -3 16 8 29 25 13 17 53 63 89 101 35 39 71 81 80 94 13 20 19
22 30 12 12 -10 12 -9 0 7 -13 16 -10 22 38 63 52 45 176 185 247 280 21 29
42 50 46 48 4 -3 6 3 5 13 0 9 5 16 12 14 8 -1 11 2 8 7 -3 5 12 35 34 68 23
32 66 96 97 143 31 47 65 92 77 100 51 35 132 121 200 212 40 53 77 94 81 90
5 -4 5 -1 1 6 -4 7 -3 18 2 25 22 26 102 199 157 337 62 157 134 302 147 294
5 -3 7 -2 6 3 -5 14 24 73 33 67 5 -3 6 3 2 12 -5 13 -3 15 7 9 8 -5 11 -4 7
2 -4 6 9 47 28 93 70 166 116 377 135 623 24 317 32 581 21 672 -11 90 -78
366 -106 438 -9 21 -12 43 -9 49 4 6 3 8 -3 5 -6 -4 -15 12 -22 34 -7 22 -29
59 -49 82 -20 23 -26 33 -13 22 14 -11 21 -14 17 -7 -14 23 -54 205 -49 221 3
11 2 12 -4 4 -5 -8 -15 4 -27 35 -33 84 -105 198 -166 265 -33 35 -57 67 -55
71 3 3 2 4 -1 1 -14 -10 -43 16 -37 32 4 11 3 14 -6 9 -7 -5 -22 3 -37 19
l-25 27 -32 -28 -32 -29 27 29 26 29 -43 55 c-24 31 -41 60 -38 66 3 6 3 8 -2
4 -11 -10 -37 11 -29 23 3 5 0 8 -8 7 -7 -2 -12 3 -10 10 1 8 -1 11 -6 8 -5
-3 -33 13 -63 36 -71 54 -174 101 -277 127 -67 18 -94 31 -142 70 -33 26 -84
61 -113 76 l-52 28 25 -29 c14 -16 4 -10 -22 14 -26 23 -52 42 -58 42 -6 0 -8
5 -4 12 4 7 3 8 -5 4 -6 -4 -39 1 -74 12 -34 11 -78 23 -98 26 -20 4 -65 18
-100 33 -235 95 -536 139 -784 113z m-4895 -173 c0 -1 -165 -166 -366 -367
-202 -201 -363 -359 -359 -352 4 7 1 21 -7 30 -12 15 -11 16 5 3 17 -13 46 13
370 337 328 328 357 356 357 349z m5301 -242 c84 -29 335 -95 361 -95 9 0 49
-18 90 -39 40 -21 114 -51 163 -66 113 -35 138 -48 200 -100 62 -52 115 -85
137 -85 14 0 113 -75 164 -125 6 -6 31 -27 54 -46 78 -63 172 -168 163 -182
-3 -6 -1 -7 5 -3 6 3 20 -11 33 -31 13 -21 43 -60 68 -86 43 -46 55 -70 110
-222 10 -27 29 -66 42 -85 44 -65 141 -305 158 -391 11 -51 10 -63 -10 -115
-12 -33 -24 -71 -26 -86 -3 -16 -8 -28 -12 -28 -3 0 -7 -52 -7 -115 -1 -63 2
-112 7 -110 4 3 11 -21 15 -52 5 -43 3 -75 -11 -123 -31 -113 -44 -211 -44
-335 -1 -98 -6 -137 -27 -215 -28 -101 -40 -124 -57 -113 -5 3 -8 2 -4 -3 6
-11 -37 -87 -45 -78 -3 3 -5 -1 -4 -8 2 -21 -96 -188 -107 -181 -6 3 -7 2 -4
-4 7 -12 -50 -158 -115 -293 -28 -58 -61 -127 -73 -155 -26 -57 -119 -160
-137 -149 -6 4 -8 3 -5 -3 3 -5 -11 -27 -31 -49 -69 -74 -68 -71 -41 -102 l24
-27 -28 25 -28 24 -25 -29 c-13 -17 -32 -43 -41 -60 -30 -55 -122 -162 -193
-227 -58 -52 -103 -111 -140 -183 -29 -58 -72 -120 -115 -165 -72 -77 -116
-136 -155 -205 -18 -33 -56 -85 -85 -115 -28 -30 -67 -74 -87 -97 -19 -24 -70
-68 -114 -99 -89 -63 -84 -58 -201 -214 -114 -154 -126 -165 -208 -205 -81
-38 -177 -122 -265 -230 -48 -58 -72 -79 -125 -104 -71 -35 -147 -105 -201
-187 -37 -58 -56 -74 -165 -143 -87 -55 -160 -134 -257 -276 l-67 -99 -122
-66 c-67 -36 -131 -77 -143 -92 -11 -14 -42 -42 -69 -62 -58 -42 -156 -178
-241 -332 -36 -65 -90 -143 -131 -190 -38 -43 -86 -107 -106 -141 -20 -35 -58
-89 -85 -120 -27 -32 -67 -87 -88 -122 -32 -53 -37 -68 -27 -80 9 -12 9 -13 0
-8 -8 5 -19 -6 -32 -30 -10 -21 -30 -48 -44 -61 l-24 -23 -48 86 c-41 73 -59
94 -116 135 -64 47 -69 53 -127 174 -34 68 -74 139 -90 158 -16 18 -37 49 -47
68 -9 19 -27 46 -39 59 -11 13 -14 20 -6 15 42 -24 -108 171 -237 309 -68 72
-123 142 -143 180 -66 123 -201 301 -340 447 -39 41 -83 95 -98 120 -66 113
-182 266 -288 380 -34 36 -70 92 -104 162 -29 58 -84 148 -121 200 -37 51 -84
120 -104 154 -20 33 -92 128 -161 210 -72 87 -138 176 -156 214 -39 78 -116
197 -173 265 -23 28 -60 84 -82 125 -48 91 -133 221 -233 355 -194 263 -207
281 -220 330 -20 75 -94 240 -150 334 -27 46 -47 89 -43 95 3 6 3 8 -2 4 -5
-5 -32 27 -61 70 -109 158 -164 241 -164 247 0 4 -9 20 -20 35 -11 15 -42 95
-70 177 -68 204 -91 264 -172 448 -40 88 -86 201 -104 250 -18 50 -39 109 -48
132 -27 73 -36 164 -38 414 -3 237 -2 247 24 351 15 59 34 123 42 142 8 19 63
85 123 148 59 62 144 156 188 208 100 118 115 131 194 170 95 47 185 109 281
195 47 41 94 77 105 79 11 3 70 12 130 21 61 10 164 31 230 47 l120 30 210 -6
c316 -10 594 -38 660 -66 22 -9 110 -38 196 -64 128 -38 170 -55 237 -99 45
-28 110 -69 144 -90 38 -23 135 -109 244 -215 l180 -177 73 -140 c106 -207 80
-200 224 -60 l122 120 -117 -120 c-65 -66 -118 -124 -118 -129 0 -5 34 -52 75
-104 56 -71 80 -112 94 -157 11 -34 33 -91 50 -126 41 -85 208 -328 253 -368
37 -32 146 -101 160 -101 4 0 8 33 8 73 0 67 -18 165 -50 278 -13 45 -12 48
32 155 76 182 108 278 122 367 15 93 27 121 81 192 l36 47 -23 27 -23 26 28
-25 28 -24 27 33 c15 19 38 57 52 85 23 46 35 57 135 116 78 46 135 90 199
153 49 48 103 95 120 104 17 9 53 31 81 49 27 18 95 52 149 74 55 22 146 65
202 95 63 33 116 55 135 55 30 0 71 15 218 81 34 16 66 27 70 25 3 -2 49 -9
102 -16 71 -8 113 -8 160 0 53 9 183 23 275 29 11 0 54 -10 95 -24z m940 -42
c13 -16 12 -17 -3 -4 -10 7 -18 15 -18 17 0 8 8 3 21 -13z m80 -80 c13 -16 12
-17 -3 -4 -17 13 -22 21 -14 21 2 0 10 -8 17 -17z m80 -80 c13 -16 12 -17 -3
-4 -17 13 -22 21 -14 21 2 0 10 -8 17 -17z m80 -80 c13 -16 12 -17 -3 -4 -10
7 -18 15 -18 17 0 8 8 3 21 -13z m80 -80 c13 -16 12 -17 -3 -4 -17 13 -22 21
-14 21 2 0 10 -8 17 -17z m-7231 -138 c13 -14 21 -25 18 -25 -2 0 -15 11 -28
25 -13 14 -21 25 -18 25 2 0 15 -11 28 -25z m7310 12 c0 -2 -12 -14 -27 -28
l-28 -24 24 28 c23 25 31 32 31 24z m70 -22 c13 -14 21 -25 18 -25 -2 0 -15
11 -28 25 -13 14 -21 25 -18 25 2 0 15 -11 28 -25z m91 -92 c13 -16 12 -17 -3
-4 -10 7 -18 15 -18 17 0 8 8 3 21 -13z m-3710 -70 c13 -16 12 -17 -3 -4 -10
7 -18 15 -18 17 0 8 8 3 21 -13z m3790 -10 c13 -16 12 -17 -3 -4 -17 13 -22
21 -14 21 2 0 10 -8 17 -17z m-3710 -70 c13 -16 12 -17 -3 -4 -10 7 -18 15
-18 17 0 8 8 3 21 -13z m3790 -10 c13 -16 12 -17 -3 -4 -10 7 -18 15 -18 17 0
8 8 3 21 -13z m80 -80 c13 -16 12 -17 -3 -4 -10 7 -18 15 -18 17 0 8 8 3 21
-13z m80 -80 c13 -16 12 -17 -3 -4 -10 7 -18 15 -18 17 0 8 8 3 21 -13z m-720
-3040 c13 -16 12 -17 -3 -4 -10 7 -18 15 -18 17 0 8 8 3 21 -13z m80 -80 c13
-16 12 -17 -3 -4 -10 7 -18 15 -18 17 0 8 8 3 21 -13z m-661 -966 c0 -2 -10
-12 -22 -23 l-23 -19 19 23 c18 21 26 27 26 19z m-140 -141 c0 -2 -8 -10 -17
-17 -16 -13 -17 -12 -4 4 13 16 21 21 21 13z m-3660 -1743 c0 -8 -9 0 -50 45
l-45 47 48 -45 c26 -24 47 -45 47 -47z m85 -83 c38 -38 67 -70 64 -70 -2 0
-36 32 -74 70 -38 39 -67 70 -64 70 2 0 36 -31 74 -70z m110 -110 c10 -11 16
-20 13 -20 -3 0 -13 9 -23 20 -10 11 -16 20 -13 20 3 0 13 -9 23 -20z m1005
-543 c0 -2 -12 -14 -27 -28 l-28 -24 24 28 c23 25 31 32 31 24z m-80 -81 c0
-2 -8 -10 -17 -17 -16 -13 -17 -12 -4 4 13 16 21 21 21 13z m-245 -56 c27 -27
47 -50 44 -50 -3 0 -27 23 -54 50 -27 28 -47 50 -44 50 3 0 27 -22 54 -50z
m-125 -313 c0 -2 -15 -16 -32 -33 l-33 -29 29 33 c28 30 36 37 36 29z m-80
-80 c0 -2 -17 -19 -37 -38 l-38 -34 34 38 c33 34 41 42 41 34z m-80 -80 c0 -2
-15 -16 -32 -33 l-33 -29 29 33 c28 30 36 37 36 29z m-80 -80 c0 -2 -15 -16
-32 -33 l-33 -29 29 33 c28 30 36 37 36 29z"/>
<path d="M2769 9893 c-13 -16 -12 -17 4 -4 9 7 17 15 17 17 0 8 -8 3 -21 -13z"/>
<path d="M7429 8700 c-11 -6 -15 -19 -12 -37 3 -16 5 -61 5 -100 -1 -57 2 -73
14 -73 8 0 14 -11 15 -27 2 -57 6 -74 26 -96 11 -12 23 -34 27 -49 3 -14 17
-40 31 -56 14 -17 25 -37 25 -45 0 -8 10 -26 21 -41 12 -15 19 -29 16 -32 -7
-7 19 -83 35 -102 7 -7 22 -44 35 -80 13 -36 32 -75 43 -87 14 -14 20 -35 20
-64 0 -35 5 -48 30 -69 23 -21 30 -35 30 -64 0 -24 11 -55 30 -86 17 -27 30
-61 30 -74 0 -14 7 -31 15 -38 8 -7 15 -18 15 -25 0 -7 6 -18 14 -24 9 -8 12
-24 9 -50 -4 -26 0 -42 11 -53 9 -9 16 -25 16 -35 0 -24 10 -37 38 -52 15 -8
22 -21 22 -41 0 -16 4 -31 9 -34 4 -3 11 -24 14 -46 3 -23 21 -74 41 -114 20
-39 38 -87 41 -106 17 -101 40 -162 68 -178 15 -9 27 -21 27 -27 0 -17 46 -54
75 -61 33 -8 61 16 88 75 l20 45 -23 18 c-15 12 -21 25 -17 38 3 11 1 23 -4
26 -5 3 -5 13 1 24 13 24 13 67 0 75 -5 3 -10 19 -10 36 0 16 -9 38 -20 49
-11 11 -20 24 -20 29 0 5 -7 14 -15 21 -8 7 -15 22 -15 35 0 12 -9 30 -19 39
-17 15 -29 63 -32 118 0 9 -7 22 -15 29 -8 6 -14 22 -14 35 0 13 -4 24 -8 24
-10 0 -62 117 -62 138 0 7 -14 26 -30 42 -30 29 -30 31 -15 61 15 28 15 32 1
48 -9 10 -16 27 -16 39 0 14 -11 27 -30 37 -26 14 -30 21 -30 58 0 35 -6 49
-30 72 -23 22 -30 38 -30 66 0 21 -4 41 -10 44 -5 3 -10 17 -10 30 0 15 -16
41 -41 66 -30 30 -43 53 -47 81 -3 26 -13 44 -28 55 -19 12 -21 18 -12 33 9
14 8 24 -5 44 -9 14 -17 35 -17 46 0 11 -7 23 -15 26 -8 4 -15 18 -15 34 0 18
-7 30 -22 37 -19 9 -23 18 -23 59 0 46 -2 50 -35 66 -19 10 -38 27 -42 38 -4
11 -12 20 -18 20 -5 0 -10 7 -10 15 0 9 -7 18 -15 21 -8 4 -15 11 -15 16 0 17
-58 68 -77 68 -10 0 -25 -5 -34 -10z"/>
<path d="M5536 8037 c-13 -10 -19 -32 -23 -83 -4 -45 -12 -77 -24 -93 -21 -26
-25 -76 -8 -86 6 -4 7 -14 4 -24 -4 -9 -13 -38 -20 -66 -15 -55 -6 -112 24
-150 11 -14 11 -16 1 -7 -8 6 -17 12 -22 12 -4 0 -6 -59 -4 -132 2 -73 0 -143
-5 -156 -10 -25 -19 -178 -23 -357 -1 -61 -7 -109 -15 -124 -9 -17 -11 -40 -6
-75 4 -28 7 -69 6 -91 -2 -145 -7 -205 -14 -205 -5 0 -20 14 -34 30 -14 17
-28 28 -31 26 -3 -3 -10 2 -17 10 -9 14 -15 14 -31 4 -17 -11 -25 -8 -57 21
-107 99 -142 123 -267 186 -37 19 -60 36 -126 96 -22 20 -45 37 -50 37 -5 0
-25 14 -44 30 -28 24 -44 30 -81 30 -28 0 -51 6 -58 14 -16 19 -123 31 -150
17 -15 -9 -21 -21 -21 -47 0 -60 41 -113 87 -114 13 0 30 -11 39 -25 9 -14 22
-25 28 -25 7 0 18 -16 24 -34 8 -20 22 -38 35 -42 12 -4 42 -22 66 -41 25 -18
55 -36 68 -39 13 -4 23 -10 23 -15 0 -5 13 -9 30 -9 20 0 34 -8 45 -23 8 -13
34 -30 56 -37 22 -8 56 -28 74 -44 47 -44 91 -76 105 -76 7 0 25 -11 42 -25
16 -14 37 -25 47 -25 9 0 21 -4 26 -9 15 -15 186 -97 218 -105 15 -3 27 -13
27 -21 0 -8 4 -15 9 -15 15 0 20 -41 8 -60 -15 -25 27 -110 54 -110 13 0 16
-5 12 -15 -3 -9 1 -21 10 -28 8 -7 18 -29 21 -49 4 -20 10 -38 14 -40 9 -4 39
-53 58 -95 17 -39 29 -41 63 -10 l26 22 -23 -26 c-12 -14 -20 -28 -16 -31 3
-4 -2 -18 -11 -32 -16 -24 -16 -26 -1 -32 9 -3 16 -12 16 -20 0 -7 11 -16 25
-20 20 -5 23 -10 19 -33 -5 -22 -1 -29 21 -39 20 -9 26 -18 22 -33 -8 -30 34
-99 61 -99 12 0 24 -29 17 -40 -3 -5 3 -14 14 -20 12 -6 18 -16 15 -25 -4 -9
-1 -22 6 -30 6 -8 9 -19 6 -24 -4 -5 0 -13 7 -18 7 -4 16 -16 20 -25 3 -10 13
-18 22 -18 13 0 14 -4 5 -21 -16 -29 -5 -49 25 -49 17 0 36 -12 56 -35 17 -19
37 -35 44 -35 7 0 15 -6 18 -12 3 -10 13 -9 40 4 35 17 37 21 36 60 -1 24 2
56 6 72 7 24 5 28 -8 23 -13 -5 -15 0 -10 28 4 27 1 36 -16 47 -11 7 -21 19
-21 27 0 7 -10 24 -22 36 -39 40 -48 53 -42 68 3 8 -6 28 -20 44 -14 16 -28
41 -31 55 -4 14 -17 36 -29 47 -16 15 -22 30 -19 45 4 18 -2 29 -22 42 -18 11
-25 23 -22 36 3 11 -5 31 -19 47 -13 16 -24 37 -24 46 0 10 -8 23 -17 30 -10
7 -18 24 -18 38 -2 39 -34 97 -54 97 -14 0 -21 13 -30 60 -7 33 -17 63 -24 67
-19 13 -47 69 -47 96 0 14 -4 29 -10 32 -5 3 -10 15 -10 26 0 10 -4 19 -8 19
-16 0 -31 66 -31 130 1 43 -6 83 -20 118 -25 63 -26 84 -5 138 14 37 14 46 0
99 -12 45 -12 63 -3 79 10 19 27 109 28 146 0 8 -5 49 -11 90 -9 57 -8 84 1
113 9 28 10 46 1 74 -9 31 -9 40 4 54 9 10 16 34 16 55 0 32 -9 46 -78 118
l-79 81 81 -78 c61 -59 83 -75 87 -63 3 8 4 25 1 38 -7 27 -6 33 2 74 4 20 0
43 -10 62 -14 28 -14 32 3 53 32 43 34 76 7 123 -14 24 -27 65 -30 92 -8 80
-18 128 -28 141 -5 7 -11 24 -13 39 -1 15 -11 33 -21 41 -22 16 -26 16 -48 0z
m294 -2220 c0 -2 -15 -16 -32 -33 l-33 -29 29 33 c28 30 36 37 36 29z"/>
<path d="M7280 6819 c-70 -7 -136 -25 -184 -51 -12 -7 -33 -11 -47 -9 -17 1
-41 -10 -70 -31 -24 -19 -58 -40 -75 -47 -79 -32 -144 -141 -144 -241 0 -51 5
-68 29 -103 59 -86 231 -132 359 -96 37 10 45 10 62 -6 11 -10 32 -17 47 -17
95 5 135 11 156 25 30 19 51 22 107 13 31 -5 65 -3 105 8 51 13 61 13 79 0 11
-7 33 -14 48 -14 14 0 33 -7 41 -15 8 -8 17 -12 20 -9 3 3 20 3 37 -1 24 -5
29 -10 20 -20 -6 -7 -8 -25 -4 -39 5 -20 2 -26 -10 -26 -9 0 -21 -9 -28 -19
-6 -10 -17 -17 -24 -14 -7 2 -19 -5 -26 -16 -7 -12 -23 -21 -35 -21 -12 0 -35
-11 -51 -25 -25 -20 -35 -23 -55 -16 -36 14 -72 7 -114 -22 -36 -24 -135 -49
-195 -48 -15 0 -30 -4 -33 -9 -4 -6 -23 -10 -44 -10 -42 0 -61 -14 -61 -46 0
-26 41 -44 99 -44 20 0 47 -7 59 -16 37 -25 79 -34 92 -19 8 10 31 12 89 8 66
-5 86 -2 123 15 23 11 61 23 82 27 95 16 288 182 321 276 19 53 19 71 -4 144
-17 54 -24 64 -75 99 -49 34 -67 40 -129 46 -40 3 -83 12 -96 19 -17 9 -42 11
-90 6 -36 -4 -106 -8 -156 -9 -49 -1 -119 -7 -153 -14 -35 -7 -76 -10 -92 -7
-15 3 -56 1 -91 -5 -57 -10 -69 -9 -109 9 -24 11 -48 17 -52 15 -4 -3 -8 0 -8
5 0 6 -9 11 -19 11 -29 0 -32 12 -8 40 20 23 45 36 179 94 28 12 72 15 178 15
106 0 148 4 173 16 18 8 44 15 57 14 41 -1 102 18 122 39 18 18 18 22 5 55
-19 44 -67 71 -111 63 -50 -10 -101 -3 -153 20 -17 8 -39 13 -50 12 -10 0 -52
-4 -93 -9z"/>
<path d="M6405 6463 c-55 -5 -161 -41 -176 -59 -7 -8 -27 -21 -45 -29 -34 -14
-76 -70 -88 -117 -4 -16 -19 -34 -36 -43 -36 -19 -63 -57 -54 -78 3 -9 -1 -26
-10 -39 -19 -26 -20 -51 -5 -80 10 -19 12 -19 52 18 l42 39 -42 -45 c-38 -41
-43 -51 -49 -112 -7 -66 -6 -68 30 -116 20 -27 36 -59 36 -70 0 -25 20 -72 30
-72 4 0 13 -14 20 -30 7 -17 27 -37 44 -46 17 -8 45 -22 61 -31 17 -9 44 -23
60 -31 17 -8 37 -24 46 -34 10 -13 33 -22 64 -26 32 -3 55 -12 65 -25 10 -12
31 -21 51 -22 19 -1 44 -7 54 -12 33 -18 176 -10 212 12 25 14 36 16 61 7 49
-17 99 3 158 62 28 28 73 71 98 96 76 73 86 86 86 107 0 11 6 26 14 32 26 22
26 51 0 67 -22 15 -26 14 -53 -5 -17 -12 -39 -33 -49 -46 -11 -14 -39 -29 -66
-36 -26 -6 -52 -20 -59 -30 -7 -10 -35 -23 -62 -29 -28 -6 -63 -19 -80 -28
-35 -19 -79 -24 -191 -23 -71 0 -87 4 -119 26 -21 14 -54 29 -74 35 -22 6 -62
35 -105 75 -38 36 -73 65 -77 65 -5 0 -9 8 -9 18 0 15 13 20 73 29 39 6 87 11
106 12 20 0 43 9 56 21 12 11 33 20 48 20 15 0 27 5 27 10 0 6 14 10 31 10 37
0 66 14 95 49 12 14 34 40 48 56 15 17 28 39 31 50 13 65 14 96 4 121 -7 16
-11 40 -10 54 1 18 -11 38 -43 69 -25 24 -43 47 -41 51 2 4 -7 18 -20 30 -14
13 -25 20 -25 15 0 -5 -11 2 -25 15 -13 13 -44 27 -67 31 -24 4 -52 9 -63 12
-11 2 -38 2 -60 0z m65 -6 c0 -2 -15 -16 -32 -33 l-33 -29 29 33 c28 30 36 37
36 29z m175 -77 c10 -11 16 -20 13 -20 -3 0 -13 9 -23 20 -10 11 -16 20 -13
20 3 0 13 -9 23 -20z m-255 -3 c0 -2 -15 -16 -32 -33 l-33 -29 29 33 c28 30
36 37 36 29z m-80 -80 c0 -2 -15 -16 -32 -33 l-33 -29 29 33 c28 30 36 37 36
29z m177 -47 c6 0 16 -13 23 -30 7 -16 18 -35 26 -41 8 -6 14 -24 14 -40 0
-28 -10 -37 -87 -74 -19 -9 -35 -25 -39 -40 -3 -14 -13 -25 -21 -25 -21 0 -69
-42 -116 -102 -36 -44 -41 -48 -50 -31 -5 10 -19 28 -30 40 -18 20 -19 27 -9
62 7 21 12 56 12 78 0 25 13 66 35 111 29 57 40 72 58 72 12 0 33 7 45 16 12
8 26 13 31 10 5 -3 20 3 32 13 24 19 24 19 45 0 11 -10 25 -19 31 -19z m-257
-33 c0 -2 -15 -16 -32 -33 l-33 -29 29 33 c28 30 36 37 36 29z m-80 -80 c0 -2
-15 -16 -32 -33 l-33 -29 29 33 c28 30 36 37 36 29z"/>
<path d="M8505 6446 c-42 -13 -113 -56 -153 -93 -20 -19 -23 -30 -20 -68 2
-25 -1 -47 -7 -49 -6 -2 -6 -8 2 -16 6 -7 9 -19 6 -26 -3 -8 0 -14 7 -14 7 0
9 -11 7 -29 -5 -28 -5 -28 42 -23 48 5 96 30 145 77 26 24 28 29 14 39 -8 6
-14 23 -14 39 1 15 -2 27 -6 27 -7 0 -4 24 7 53 5 10 3 17 -5 17 -10 0 -10 3
0 15 7 8 10 15 6 15 -4 0 1 11 10 25 18 28 15 29 -41 11z"/>
<path d="M10979 10973 c-13 -16 -12 -17 4 -4 16 13 21 21 13 21 -2 0 -10 -8
-17 -17z"/>
<path d="M10899 10893 c-13 -16 -12 -17 4 -4 9 7 17 15 17 17 0 8 -8 3 -21
-13z"/>
<path d="M10819 10813 c-13 -16 -12 -17 4 -4 16 13 21 21 13 21 -2 0 -10 -8
-17 -17z"/>
<path d="M10739 10733 c-13 -16 -12 -17 4 -4 16 13 21 21 13 21 -2 0 -10 -8
-17 -17z"/>
<path d="M10659 10653 c-13 -16 -12 -17 4 -4 16 13 21 21 13 21 -2 0 -10 -8
-17 -17z"/>
<path d="M10579 10573 c-13 -16 -12 -17 4 -4 9 7 17 15 17 17 0 8 -8 3 -21
-13z"/>
<path d="M10499 10493 c-13 -16 -12 -17 4 -4 9 7 17 15 17 17 0 8 -8 3 -21
-13z"/>
<path d="M10419 10413 c-13 -16 -12 -17 4 -4 16 13 21 21 13 21 -2 0 -10 -8
-17 -17z"/>
<path d="M10450 10266 c0 -2 8 -10 18 -17 15 -13 16 -12 3 4 -13 16 -21 21
-21 13z"/>
<path d="M2023 9378 c-16 -27 -12 -40 8 -23 10 10 16 22 13 26 -7 12 -11 11
-21 -3z"/>
<path d="M11000 9386 c0 -2 8 -10 18 -17 15 -13 16 -12 3 4 -13 16 -21 21 -21
13z"/>
<path d="M1941 9296 c-7 -8 -8 -17 -3 -20 6 -3 15 1 21 8 7 8 8 17 3 20 -6 3
-15 -1 -21 -8z"/>
<path d="M11080 9306 c0 -2 8 -10 18 -17 15 -13 16 -12 3 4 -13 16 -21 21 -21
13z"/>
<path d="M1861 9216 c-7 -8 -8 -17 -3 -20 6 -3 15 1 21 8 7 8 8 17 3 20 -6 3
-15 -1 -21 -8z"/>
<path d="M1781 9136 c-7 -8 -8 -17 -3 -20 6 -3 15 1 21 8 7 8 8 17 3 20 -6 3
-15 -1 -21 -8z"/>
<path d="M1804 9108 l-19 -23 23 19 c12 11 22 21 22 23 0 8 -8 2 -26 -19z"/>
<path d="M11666 7805 c-11 -8 -15 -15 -9 -15 6 0 16 7 23 15 16 19 11 19 -14
0z"/>
<path d="M11089 7343 c-13 -16 -12 -17 4 -4 9 7 17 15 17 17 0 8 -8 3 -21 -13z"/>
<path d="M11009 7263 c-13 -16 -12 -17 4 -4 9 7 17 15 17 17 0 8 -8 3 -21 -13z"/>
<path d="M2040 7266 c0 -2 8 -10 18 -17 15 -13 16 -12 3 4 -13 16 -21 21 -21
13z"/>
<path d="M2010 7236 c0 -2 8 -10 18 -17 15 -13 16 -12 3 4 -13 16 -21 21 -21
13z"/>
<path d="M10929 7183 c-13 -16 -12 -17 4 -4 9 7 17 15 17 17 0 8 -8 3 -21 -13z"/>
<path d="M2120 7186 c0 -2 8 -10 18 -17 15 -13 16 -12 3 4 -13 16 -21 21 -21
13z"/>
<path d="M2090 7156 c0 -2 8 -10 18 -17 15 -13 16 -12 3 4 -13 16 -21 21 -21
13z"/>
<path d="M10849 7103 c-13 -16 -12 -17 4 -4 9 7 17 15 17 17 0 8 -8 3 -21 -13z"/>
<path d="M2170 7076 c0 -2 8 -10 18 -17 15 -13 16 -12 3 4 -13 16 -21 21 -21
13z"/>
<path d="M10769 7023 c-13 -16 -12 -17 4 -4 9 7 17 15 17 17 0 8 -8 3 -21 -13z"/>
<path d="M2280 7026 c0 -2 8 -10 18 -17 15 -13 16 -12 3 4 -13 16 -21 21 -21
13z"/>
<path d="M2250 6996 c0 -2 8 -10 18 -17 15 -13 16 -12 3 4 -13 16 -21 21 -21
13z"/>
<path d="M10689 6943 c-13 -16 -12 -17 4 -4 9 7 17 15 17 17 0 8 -8 3 -21 -13z"/>
<path d="M2360 6946 c0 -2 8 -10 18 -17 15 -13 16 -12 3 4 -13 16 -21 21 -21
13z"/>
<path d="M2330 6916 c0 -2 8 -10 18 -17 15 -13 16 -12 3 4 -13 16 -21 21 -21
13z"/>
<path d="M10609 6863 c-13 -16 -12 -17 4 -4 9 7 17 15 17 17 0 8 -8 3 -21 -13z"/>
<path d="M10449 6703 c-13 -16 -12 -17 4 -4 9 7 17 15 17 17 0 8 -8 3 -21 -13z"/>
<path d="M10369 6623 c-13 -16 -12 -17 4 -4 9 7 17 15 17 17 0 8 -8 3 -21 -13z"/>
<path d="M10289 6543 c-13 -16 -12 -17 4 -4 9 7 17 15 17 17 0 8 -8 3 -21 -13z"/>
<path d="M10215 6471 c-3 -5 -2 -12 3 -15 5 -3 9 1 9 9 0 17 -3 19 -12 6z"/>
<path d="M10215 6421 c-3 -5 -2 -12 3 -15 5 -3 9 1 9 9 0 17 -3 19 -12 6z"/>
<path d="M10049 6303 c-13 -16 -12 -17 4 -4 9 7 17 15 17 17 0 8 -8 3 -21 -13z"/>
<path d="M10360 6266 c0 -2 8 -10 18 -17 15 -13 16 -12 3 4 -13 16 -21 21 -21
13z"/>
<path d="M10440 6186 c0 -2 8 -10 18 -17 15 -13 16 -12 3 4 -13 16 -21 21 -21
13z"/>
<path d="M9895 6151 c-3 -5 -2 -12 3 -15 5 -3 9 1 9 9 0 17 -3 19 -12 6z"/>
<path d="M10520 6106 c0 -2 8 -10 18 -17 15 -13 16 -12 3 4 -13 16 -21 21 -21
13z"/>
<path d="M10600 6026 c0 -2 8 -10 18 -17 15 -13 16 -12 3 4 -13 16 -21 21 -21
13z"/>
<path d="M9733 6013 c4 -3 -1 -16 -10 -27 -18 -21 -18 -21 4 -2 20 16 23 36 6
36 -4 0 -3 -3 0 -7z"/>
<path d="M10680 5946 c0 -2 8 -10 18 -17 15 -13 16 -12 3 4 -13 16 -21 21 -21
13z"/>
<path d="M10760 5866 c0 -2 8 -10 18 -17 15 -13 16 -12 3 4 -13 16 -21 21 -21
13z"/>
<path d="M10840 5786 c0 -2 8 -10 18 -17 15 -13 16 -12 3 4 -13 16 -21 21 -21
13z"/>
<path d="M11080 5546 c0 -2 8 -10 18 -17 15 -13 16 -12 3 4 -13 16 -21 21 -21
13z"/>
<path d="M1475 5309 c-4 -6 -5 -12 -2 -15 2 -3 7 2 10 11 7 17 1 20 -8 4z"/>
<path d="M1301 5104 c0 -11 3 -14 6 -6 3 7 2 16 -1 19 -3 4 -6 -2 -5 -13z"/>
<path d="M11581 4424 c0 -11 3 -14 6 -6 3 7 2 16 -1 19 -3 4 -6 -2 -5 -13z"/>
<path d="M11059 3693 c-13 -16 -12 -17 4 -4 16 13 21 21 13 21 -2 0 -10 -8
-17 -17z"/>
<path d="M10979 3613 c-13 -16 -12 -17 4 -4 9 7 17 15 17 17 0 8 -8 3 -21 -13z"/>
<path d="M10819 3453 c-13 -16 -12 -17 4 -4 16 13 21 21 13 21 -2 0 -10 -8
-17 -17z"/>
<path d="M10739 3373 c-13 -16 -12 -17 4 -4 16 13 21 21 13 21 -2 0 -10 -8
-17 -17z"/>
<path d="M10659 3293 c-13 -16 -12 -17 4 -4 16 13 21 21 13 21 -2 0 -10 -8
-17 -17z"/>
<path d="M10579 3213 c-13 -16 -12 -17 4 -4 9 7 17 15 17 17 0 8 -8 3 -21 -13z"/>
<path d="M10499 3133 c-13 -16 -12 -17 4 -4 9 7 17 15 17 17 0 8 -8 3 -21 -13z"/>
<path d="M10419 3053 c-13 -16 -12 -17 4 -4 16 13 21 21 13 21 -2 0 -10 -8
-17 -17z"/>
<path d="M10339 2973 c-13 -16 -12 -17 4 -4 9 7 17 15 17 17 0 8 -8 3 -21 -13z"/>
<path d="M10259 2893 c-13 -16 -12 -17 4 -4 16 13 21 21 13 21 -2 0 -10 -8
-17 -17z"/>
<path d="M10099 2733 c-13 -16 -12 -17 4 -4 16 13 21 21 13 21 -2 0 -10 -8
-17 -17z"/>
<path d="M2659 2653 c-13 -16 -12 -17 4 -4 9 7 17 15 17 17 0 8 -8 3 -21 -13z"/>
<path d="M2419 2413 c-13 -16 -12 -17 4 -4 9 7 17 15 17 17 0 8 -8 3 -21 -13z"/>
<path d="M2339 2333 c-13 -16 -12 -17 4 -4 9 7 17 15 17 17 0 8 -8 3 -21 -13z"/>
<path d="M2259 2253 c-13 -16 -12 -17 4 -4 9 7 17 15 17 17 0 8 -8 3 -21 -13z"/>
<path d="M2179 2173 c-13 -16 -12 -17 4 -4 16 13 21 21 13 21 -2 0 -10 -8 -17
-17z"/>
<path d="M2099 2093 c-13 -16 -12 -17 4 -4 9 7 17 15 17 17 0 8 -8 3 -21 -13z"/>
<path d="M2019 2013 c-13 -16 -12 -17 4 -4 9 7 17 15 17 17 0 8 -8 3 -21 -13z"/>
<path d="M1939 1933 c-13 -16 -12 -17 4 -4 16 13 21 21 13 21 -2 0 -10 -8 -17
-17z"/>
<path d="M1699 1703 c-13 -16 -12 -17 4 -4 16 13 21 21 13 21 -2 0 -10 -8 -17
-17z"/>
</g>
</svg>
